# xmcd CD database file
#
# Track frame offsets:
#	150
#	13110
#	27760
#	54362
#	73407
#	86877
#	104762
#	121205
#	151332
#	177709
#	195872
#	213027
#
# Disc length: 3141 seconds
#
# Revision: 0
# Processed by: cddbd v1.5.2PL0 Copyright (c) Steve Scherf et al.
# Submitted via: CDex 1.70beta2
#
DISCID=a30c430c
DTITLE=Various Artist - CD Mania - Venezuela en Salsa
DYEAR=1999
DGENRE=Salsa
TTITLE0=Sexteto Juventud-Carmelo y Chocolate
TTITLE1=Los Dementes-Pómpelo
TTITLE2=Orquesta La Amistad-Chicharritos
TTITLE3=Naty y su Charanga-Sndra Mora
TTITLE4=Porfi Jiménez-Africa a-go-gó
TTITLE5=Salsa Mayor-Camina y prende el fogón
TTITLE6=Samuel del Real-Ella no baila sola
TTITLE7=Orlando "Watussi"-Malunga
TTITLE8=Orquesta La Amistad-Ritmo de azúcar
TTITLE9=Porfi Jiménez-Un saludo a Puerto Rico
TTITLE10=Salsa Mayor-Lo que pasó a Luisita
TTITLE11=Dimension Latina-Gavilán
EXTD=YEAR: 1999
EXTT0=
EXTT1=
EXTT2=
EXTT3=
EXTT4=
EXTT5=
EXTT6=
EXTT7=
EXTT8=
EXTT9=
EXTT10=
EXTT11=
PLAYORDER=
